<?xml version="1.0" ?><!DOCTYPE svg  PUBLIC '-//W3C//DTD SVG 1.1//EN'  'http://www.w3.org/Graphics/SVG/1.1/DTD/svg11.dtd'><svg enable-background="new 0 0 91 91" height="91px" id="Layer_1" version="1.1" viewBox="0 0 91 91" width="91px" xml:space="preserve" xmlns="http://www.w3.org/2000/svg" xmlns:xlink="http://www.w3.org/1999/xlink"><g><path d="M83.344,9.402c-3.221-0.558-6.54,2.599-8.667,4.631l-0.562,0.535c-2.396,2.248-5.676,5.328-7.293,8.862   c-0.027,0.06-0.049,0.122-0.064,0.187c-1.189,0.878-2.376,1.755-3.561,2.637c0.262-0.647,0.504-1.285,0.732-1.886l0.439-1.152   c0.826-2.132,2.211-5.698,0.443-7.65c-0.523-0.576-1.191-0.881-1.935-0.881c-2.179,0-4.421,2.539-5.083,3.834   c-1.557,3.045-1.662,8.414-0.283,12.005c-3.945,2.997-7.324,5.656-10.391,8.175c0.391-0.674,0.769-1.344,1.133-2l0.189-0.339   c1.4-2.503,3.746-6.689,1.827-9.469c-0.581-0.845-1.396-1.291-2.354-1.291c-2.312,0-4.838,2.596-5.544,3.987   c-2.702,5.333-2.753,11.537-2.544,14.766c0.014,0.172,0.057,0.333,0.127,0.477l-0.016,0.018c-0.432,0.387-0.857,0.778-1.283,1.169   c-0.346,0.116-0.634,0.379-0.791,0.719c-2.846,2.633-5.535,5.303-8.021,7.965c0.809-3.26,1.646-8.494-0.354-11.261   c-0.851-1.177-2.101-1.774-3.782-1.774h-0.002c-2.883,0.028-4.1,1.499-4.613,2.728c-1.846,4.418,2.199,12.649,4.467,15.128   c-2.369,2.81-4.584,5.698-6.606,8.62c-0.366-4.25-2.104-9.629-4.81-12.393c-1.59-1.627-3.387-2.201-5.217-1.672   c-2.523,0.729-3.931,2.096-4.184,4.064c-0.65,5.068,7.238,12.758,10.84,15.195c-1.456,2.393-2.736,4.697-3.906,7.031   c-0.158,0.316-0.143,0.674,0.047,0.977c0.203,0.33,0.58,0.543,0.962,0.543c0.354,0,0.672-0.186,0.851-0.492   c1.563-2.701,3.143-5.27,4.76-7.743l0.274,0.204l-0.212-0.299c1.632-2.49,3.302-4.885,5.031-7.213   c0.025,0.003,0.053,0.004,0.078,0.006c2.625,0.082,5.045,1.166,7.607,2.313c2.323,1.039,4.725,2.115,7.314,2.393   c1.828,0.199,5.693-0.846,7.191-3.02c0.656-0.953,0.789-2.023,0.381-3.095c-1.072-2.815-5.117-3.177-8.523-3.177l-1.279,0.006   c-3.006,0.008-6.621,0.017-9.851,0.785c4.039-5.066,8.269-9.648,12.88-13.955c2.213,0.799,4.273,2.054,6.269,3.268   c2.517,1.531,5.118,3.115,8.12,3.881c0.579,0.148,1.218,0.225,1.896,0.225c2.594,0,5.234-1.061,6.729-2.699   c1.027-1.129,1.499-2.5,1.363-3.965c-0.396-4.234-7.397-4.97-10.504-5.296c-3.494-0.37-6.274-0.376-8.668-0.028   c3.508-2.979,7.419-6.063,12.197-9.619c0.475-0.355,0.955-0.705,1.437-1.054l-0.053,0.225l0.165-0.305   c0.203-0.148,0.408-0.294,0.613-0.442c2.732,3.628,7.993,5.396,10.975,6.142c0.689,0.172,1.523,0.267,2.35,0.267l0,0   c1.184,0,3.354-0.2,4.588-1.535c0.639-0.69,0.922-1.563,0.842-2.598c-0.232-2.956-5.133-3.683-7.486-4.033l-0.551-0.083   c-2.387-0.391-4.768-0.636-7.104-0.734l0.432-0.304c2.518-1.776,5.121-3.611,7.611-5.51c4.871-0.751,10.834-2.196,14.156-6.612   c0.93-1.237,1.785-4.486,0.957-6.567C85.117,10.205,84.364,9.576,83.344,9.402z M74.93,35.354c0.011,0.031,0.041,0.129-0.102,0.344   c-0.461,0.687-1.207,1.007-2.352,1.007c-0.749,0-1.547-0.143-2.297-0.296c-1.195-0.247-2.699-0.707-4.198-1.376   c0.237,0.04,0.474,0.074,0.71,0.103l0.145,0.009c0.549,0,0.986-0.404,1.037-0.961c0.052-0.566-0.314-1.051-0.869-1.153   c-0.523-0.099-1.045-0.232-1.574-0.402c3.129,0.339,5.852,0.955,8.127,1.837C74.641,34.886,74.883,35.203,74.93,35.354z    M59.666,21.207c0.352-1.794,1.258-3.01,2.693-3.613c0.27-0.115,0.418-0.132,0.506-0.14c0.001,0.001,0.107,0.128,0.092,0.685   c-0.057,1.983-0.712,4.071-1.553,6.036c0.166-0.61,0.353-1.213,0.57-1.802c0.124-0.335,0.082-0.689-0.115-0.972   c-0.197-0.284-0.541-0.462-0.893-0.462c-0.41,0-0.777,0.238-0.957,0.62c-0.211,0.453-0.4,0.913-0.572,1.374   C59.479,22.347,59.555,21.778,59.666,21.207z M82.707,11.881v-0.623l0,0l0.031,0.623c0.303,0.005,0.381,0.116,0.432,0.218   c0.517,1.054-0.895,4.305-1.227,4.749c-1.583,2.09-4.435,3.246-7.07,3.947c0.227-0.195,0.453-0.393,0.678-0.592   c0.404-0.357,0.539-0.889,0.352-1.386c-0.186-0.49-0.645-0.819-1.145-0.819c-0.26,0-0.516,0.088-0.74,0.255l-1.24,0.917   c2.041-2.197,4.432-4.265,6.996-6.034C80.68,12.516,81.736,11.881,82.707,11.881z M60.816,50.969   c-0.822,1.271-2.955,2.271-4.115,2.479c-0.289,0.053-0.596,0.078-0.908,0.078c-1.743,0-3.564-0.795-5.28-1.61   c-1.419-0.673-2.819-1.556-4.173-2.407c-0.229-0.145-0.457-0.289-0.689-0.434c1.203,0.152,2.423,0.359,3.729,0.588l0.182,0.016   c0.517,0,0.949-0.393,1.03-0.932c0.077-0.52-0.21-0.984-0.698-1.135c-1.816-0.557-3.637-0.85-5.178-1.061l-0.395-0.056   c1.426-0.204,2.823-0.239,3.932-0.239c0.863,0,1.699,0.025,2.482,0.054c6.367,0.216,9.852,1.348,10.357,3.366   C61.197,50.096,61.107,50.52,60.816,50.969z M45.447,35.199c-0.217-0.271-0.563-0.434-0.924-0.434   c-0.481,0-0.881,0.291-1.018,0.739l-0.494,1.593c-0.092,0.288-0.182,0.577-0.271,0.868c0.15-1.165,0.355-2.323,0.616-3.468   c0.55-2.432,1.396-4.185,2.581-5.356c0.492-0.485,1.037-0.764,1.494-0.764c0.254,0,0.456,0.085,0.601,0.252   c0.229,0.264,0.31,0.72,0.228,1.286c-0.311,2.159-1.275,4.63-2.877,7.375c0.086-0.409,0.174-0.815,0.266-1.218   C45.717,35.756,45.646,35.447,45.447,35.199z M26.387,48.658c-0.318,0-0.615,0.132-0.814,0.363c-0.195,0.227-0.277,0.523-0.23,0.84   c0.209,1.399,0.322,2.828,0.34,4.324c-1.518-2.912-3.223-6.602-2.24-8.491c0.394-0.758,1.219-1.205,2.522-1.366   c0.091-0.011,0.181-0.018,0.265-0.018c0.451,0,0.787,0.159,1.057,0.498c0.761,0.962,0.926,3.275,0.508,6.48   c-0.092-0.582-0.201-1.168-0.328-1.76C27.355,49.018,26.912,48.658,26.387,48.658z M43.654,65.977   c-0.198,0.93-2.539,2.283-3.188,2.439c-0.383,0.092-0.799,0.139-1.236,0.139c-1.648,0-3.439-0.656-4.879-1.184   c-0.379-0.137-0.758-0.287-1.137-0.446c0.996,0.046,1.965,0.015,2.863-0.11c0.572-0.08,0.957-0.553,0.918-1.123   c-0.041-0.576-0.502-1.012-1.146-1.012c-0.001,0-0.003,0-0.005,0c-1.302,0.077-2.604-0.082-3.899-0.299   c0.516-0.029,1.03-0.055,1.543-0.082l0.686-0.037c0.939-0.052,2.004-0.11,3.089-0.11c2.927,0,4.948,0.46,6.179,1.407   C43.701,65.758,43.672,65.896,43.654,65.977z M7.465,59.037c0.104-1.021,0.744-1.795,1.959-2.363   c0.305-0.143,0.605-0.215,0.896-0.215c2.766,0,5.05,6.277,5.925,11.218c-0.171-0.317-0.339-0.634-0.506-0.948   c-1.101-2.07-2.239-4.211-3.901-5.98c-0.496-0.527-1.431-0.389-1.748,0.225c-0.18,0.346-0.146,0.752,0.088,1.088   c0.965,1.381,1.727,2.977,2.464,4.52c0.269,0.561,0.539,1.127,0.822,1.691C10.328,65.426,7.197,61.656,7.465,59.037z"/></g></svg>